<?xml version="1.0" standalone="no"?><!DOCTYPE svg PUBLIC "-//W3C//DTD SVG 1.1//EN" "http://www.w3.org/Graphics/SVG/1.1/DTD/svg11.dtd"><svg t="1718676921419" class="icon" viewBox="0 0 1024 1024" version="1.1" xmlns="http://www.w3.org/2000/svg" p-id="4897" xmlns:xlink="http://www.w3.org/1999/xlink" width="200" height="200"><path d="M512 213.333333v554.666667c0 35.328-23.466667 64-52.352 64h-23.466667c-18.517333 0-36.266667-8.96-49.365333-25.002667l-133.632-163.328c-13.098667-16-30.848-25.002667-49.365333-25.002666h-40.917334c-19.285333 0-34.901333-19.114667-34.901333-42.666667v-170.666667c0-23.552 15.616-42.666667 34.901333-42.666666h40.917334c18.517333 0 36.266667-8.96 49.365333-25.002667l133.632-163.328c13.098667-16 30.848-25.002667 49.365333-25.002667h23.466667C488.533333 149.333333 512 178.005333 512 213.333333z m62.72 105.386667a32 32 0 0 1 45.226667 0L725.333333 424.064l105.386667-105.386667a32 32 0 0 1 41.642667-3.072l3.584 3.114667a32 32 0 0 1 0 45.226667L770.602667 469.333333l105.386666 105.386667a32 32 0 0 1 3.072 41.642667l-3.114666 3.584a32 32 0 0 1-45.226667 0L725.333333 514.602667l-105.386666 105.386666a32 32 0 0 1-41.642667 3.072l-3.584-3.114666a32 32 0 0 1 0-45.226667L680.064 469.333333l-105.386667-105.386666a32 32 0 0 1-3.072-41.642667l3.114667-3.584z" p-id="4898" fill="#ffffff"></path></svg>