<?xml version="1.0" standalone="no"?><!DOCTYPE svg PUBLIC "-//W3C//DTD SVG 1.1//EN" "http://www.w3.org/Graphics/SVG/1.1/DTD/svg11.dtd"><svg t="1718677018729" class="icon" viewBox="0 0 1024 1024" version="1.1" xmlns="http://www.w3.org/2000/svg" p-id="5816" xmlns:xlink="http://www.w3.org/1999/xlink" width="200" height="200"><path d="M533.546667 594.645333c5.248 3.072 9.685333 7.253333 12.928 12.202667l130.005333 196.266667c11.904 18.005333 6.101333 41.685333-12.928 52.906666a42.496 42.496 0 0 1-21.546667 5.845334H381.994667c-22.442667 0-40.661333-17.194667-40.661334-38.4 0-7.168 2.133333-14.250667 6.186667-20.352l130.005333-196.266667c11.904-17.962667 36.992-23.466667 56.021334-12.202667z m291.413333-425.728a117.333333 117.333333 0 0 1 117.333333 117.333334V640a117.333333 117.333333 0 0 1-117.333333 117.333333h-128a32 32 0 1 1 0-64h128c29.44 0 53.333333-23.893333 53.333333-53.333333V286.250667c0-29.44-23.893333-53.333333-53.333333-53.333334H203.306667c-29.44 0-53.333333 23.893333-53.333334 53.333334V640c0 29.44 23.893333 53.333333 53.333334 53.333333h128a32 32 0 1 1 0 64h-128A117.333333 117.333333 0 0 1 86.016 640V286.250667a117.333333 117.333333 0 0 1 117.333333-117.333334h621.653334z" p-id="5817" fill="#ffffff"></path></svg>