<?xml version="1.0" standalone="no"?><!DOCTYPE svg PUBLIC "-//W3C//DTD SVG 1.1//EN" "http://www.w3.org/Graphics/SVG/1.1/DTD/svg11.dtd"><svg t="1718677092372" class="icon" viewBox="0 0 1024 1024" version="1.1" xmlns="http://www.w3.org/2000/svg" p-id="6408" xmlns:xlink="http://www.w3.org/1999/xlink" width="200" height="200"><path d="M819.797333 99.968a32 32 0 0 1 4.778667 45.013333c-59.861333 74.069333-143.274667 99.882667-245.546667 78.293334l-6.314666-1.493334V765.866667l-0.128 2.517333c0 37.12-12.501333 71.722667-38.101334 97.365333-59.989333 59.946667-169.386667 47.786667-244.352-27.178666-75.008-74.965333-87.168-184.405333-27.178666-244.352 58.026667-58.069333 162.389333-48.554667 237.013333 20.053333l8.746667 8.490667V179.584a32 32 0 0 1 42.154666-30.336c100.778667 33.792 173.013333 18.517333 223.914667-44.501333a32 32 0 0 1 45.013333-4.778667z" p-id="6409" fill="#1296db"></path></svg>