<?xml version="1.0" standalone="no"?><!DOCTYPE svg PUBLIC "-//W3C//DTD SVG 1.1//EN" "http://www.w3.org/Graphics/SVG/1.1/DTD/svg11.dtd"><svg t="1718676895421" class="icon" viewBox="0 0 1024 1024" version="1.1" xmlns="http://www.w3.org/2000/svg" p-id="4513" xmlns:xlink="http://www.w3.org/1999/xlink" width="200" height="200"><path d="M512 213.333333v554.666667c0 35.328-23.466667 64-52.352 64h-23.466667c-18.517333 0-36.266667-8.96-49.365333-25.002667l-133.632-163.328c-13.098667-16-30.848-25.002667-49.365333-25.002666h-40.917334c-19.285333 0-34.901333-19.114667-34.901333-42.666667v-170.666667c0-23.552 15.616-42.666667 34.901333-42.666666h40.917334c18.517333 0 36.266667-8.96 49.365333-25.002667l133.632-163.328c13.098667-16 30.848-25.002667 49.365333-25.002667h23.466667C488.533333 149.333333 512 178.005333 512 213.333333z m230.570667-21.632a299.733333 299.733333 0 0 1-5.632 556.501334 32 32 0 1 1-23.210667-59.648 235.776 235.776 0 0 0 4.437333-437.717334 32 32 0 1 1 24.405334-59.136z m-84.224 129.706667a160 160 0 0 1-2.986667 297.088 32 32 0 1 1-23.253333-59.648 96 96 0 0 0 1.834666-178.304 32 32 0 1 1 24.405334-59.178667z" p-id="4514" fill="#ffffff"></path></svg>